<svg width="25" height="32" viewBox="0 0 25 32" fill="none" xmlns="http://www.w3.org/2000/svg">
<path d="M2.96765 14.1117C2.17761 14.0687 1.57166 13.3563 1.59049 12.4925L1.72233 6.44587C1.75058 5.15017 2.78921 4.1565 3.97293 4.28264C4.53724 4.31332 5.09483 4.6525 5.48043 5.10588C5.42938 4.85601 5.37833 4.60614 5.38506 4.29764C5.47512 2.75821 6.68708 1.58865 8.09787 1.66536C9.17007 1.72365 10.1119 2.57791 10.4263 3.70692C11.5214 2.71632 13.1552 2.9287 14.0876 4.21486C14.1964 4.4061 14.3617 4.6004 14.4141 4.78857C14.8158 4.50155 15.2135 4.39963 15.7214 4.42724C16.9065 4.49168 17.8429 5.59274 17.8147 6.88844C17.8026 7.44374 17.6225 7.92813 17.2745 8.34162L17.0999 8.57922L13.0932 8.36137C13.0919 8.42307 13.0919 8.42307 13.0905 8.48477C13.0851 8.73157 13.0811 8.91667 13.0757 9.16347C13.073 9.28687 13.0704 9.41027 13.069 9.47197C13.0354 11.0145 11.8234 12.184 10.3562 12.1043C9.17113 12.0398 8.12046 10.9943 7.92299 9.68635C7.38954 10.831 6.08086 11.2541 5.02077 10.6405C4.79774 10.5048 4.63113 10.3722 4.46587 10.1779L4.41072 12.7076C4.39188 13.5714 3.75634 14.2163 2.96765 14.1117Z" fill="white"/>
<path d="M13.09 8.35274L10.8961 8.23628C10.8947 8.29817 10.8947 8.29817 10.8933 8.36006C10.8876 8.60763 10.8833 8.7933 10.8776 9.04087C10.8748 9.16465 10.8719 9.28843 10.8705 9.35032C10.8463 10.4025 10.2047 11.3599 9.35101 11.7483C9.68424 11.9519 10.0766 12.0347 10.4141 12.0526C11.8204 12.1273 13.0301 10.9522 13.0657 9.4049C13.0672 9.34301 13.07 9.21923 13.0729 9.09544C13.0786 8.84788 13.0828 8.6622 13.0885 8.41463C13.0885 8.41463 13.0885 8.41463 13.09 8.35274Z" fill="#F4A300"/>
<path d="M15.7247 4.48385C15.3311 4.46298 14.9908 4.56884 14.6491 4.73657C15.6471 5.40897 15.9531 6.78808 15.365 7.87198C15.306 7.99274 15.1906 8.11053 15.1315 8.23129L14.9571 8.46984L17.1503 8.58613L17.3247 8.34758C17.6721 7.93236 17.8522 7.44632 17.8651 6.88946C17.8374 5.64901 16.9056 4.54647 15.7247 4.48385Z" fill="#F4A300"/>
<path d="M5.11692 29.5482C4.04203 29.6133 3.10019 28.759 3.01288 27.5806C3.01692 27.3955 3.01961 27.2721 3.02365 27.087L3.3048 14.1917L3.64742 14.025C4.16069 13.8058 4.45495 13.2658 4.46706 12.7105L4.51683 10.4276L5.24371 10.776C5.46809 10.85 5.69247 10.924 5.97463 10.9393C6.48251 10.9669 7.05086 10.8125 7.45395 10.4638L7.9726 9.9978L8.29773 10.6332C8.73035 11.5216 9.56606 12.0612 10.469 12.1103C11.8797 12.187 13.0917 11.0174 13.1253 9.47491C13.1267 9.41321 13.1294 9.28981 13.1321 9.16641L13.206 8.36738L16.9305 8.56989C17.269 8.5883 17.5445 8.91214 17.5364 9.28234L17.1315 27.854C17.2188 29.0325 16.4623 30.0415 15.3874 30.1066C15.2181 30.0974 15.1053 30.0912 14.936 30.082L5.11692 29.5482Z" fill="#F4A300"/>
<path d="M16.8737 8.5669L13.8828 8.40428C14.2214 8.42269 14.4404 8.74346 14.4323 9.11366L14.0274 27.6854C14.1147 28.8638 13.3583 29.8728 12.2834 29.9379C12.1141 29.9287 12.0012 29.9226 11.8319 29.9134L14.8228 30.076C15.8923 30.2577 16.8691 29.5077 17.0075 28.3416C17.0116 28.1565 17.0142 28.0331 17.0183 27.848L17.4232 9.27629C17.4313 8.90609 17.2123 8.58531 16.8737 8.5669Z" fill="#F4A300"/>
<path d="M17.095 26.9255L17.1703 23.4703L19.2019 23.5808C20.4998 23.6513 20.6436 22.2384 20.657 21.6214L20.7458 17.5492C20.7593 16.9322 20.6773 15.5069 19.3794 15.4364L17.3479 15.3259L17.4219 11.9324L21.1463 12.1349C22.7828 12.2239 23.7126 13.6335 23.6615 15.9781L23.4973 23.5055C23.4462 25.8501 22.4573 27.1553 20.8208 27.0663L17.095 26.9255Z" fill="#F4A300"/>
<path d="M21.1466 12.1349L19.3408 12.0368C20.9773 12.1257 21.9071 13.5353 21.856 15.8799L21.6918 23.4073C21.6407 25.7519 20.6518 27.0571 19.0153 26.9682L20.8211 27.0664C22.4576 27.1553 23.4465 25.8501 23.4976 23.5055L23.6618 15.9781C23.7129 13.6335 22.7831 12.2239 21.1466 12.1349Z" fill="#F4A300"/>
<path d="M21.1363 11.4922L17.9873 11.325L18.0343 9.28325C18.0399 9.03577 17.9894 8.7853 17.8812 8.59372C18.23 8.11667 18.4115 7.56879 18.4257 6.95008C18.4641 5.27957 17.2569 3.9146 15.7386 3.83398C15.4013 3.81607 15.0062 3.85704 14.7208 4.02772C13.7947 2.67768 12.174 2.15799 10.8059 2.89065C9.94319 1.23424 7.98646 0.634765 6.50025 1.60893C5.7002 2.12397 5.17419 2.96329 5.03896 3.94725C3.64598 3.31576 2.05441 3.97461 1.51276 5.4945C1.39318 5.79788 1.32841 6.16612 1.32129 6.47547L1.18186 12.5388C1.15767 13.5906 1.86734 14.5575 2.82043 14.732L2.53587 27.1061C2.38925 28.585 3.37012 29.9999 4.71684 30.1954C4.88554 30.2043 4.998 30.2103 5.16669 30.2192L14.8948 30.7358C16.2415 30.9312 17.5042 29.8832 17.6508 28.4043C17.6551 28.2187 17.6579 28.0949 17.6622 27.9093L17.6693 27.6L20.7621 27.7642C22.7302 27.8687 23.948 26.3228 24.0106 23.6005L24.1857 15.9904C24.2483 13.268 23.1044 11.5967 21.1363 11.4922ZM16.4813 27.8465C16.5739 28.7187 16.0507 29.4343 15.2606 29.5162C15.1482 29.5102 14.9795 29.5013 14.867 29.4953L5.13892 28.9788C4.34883 29.0607 3.68686 28.468 3.59431 27.5959C3.59716 27.4721 3.60143 27.2865 3.60427 27.1628L3.89311 14.603C4.57642 14.2676 5.04335 13.5491 5.06185 12.7448L5.09458 11.3217C6.04198 11.7437 7.05984 11.55 7.80651 10.9082C8.66922 12.5646 10.5683 13.223 12.1093 12.3137C13.0233 11.7427 13.6112 10.6589 13.6944 9.48636C13.6959 9.42449 13.6987 9.30075 13.7001 9.23888C13.7016 9.17701 13.703 9.11514 13.7044 9.05327L16.9096 9.22346C16.9096 9.22346 16.9658 9.22645 16.9644 9.28832L16.5376 27.8495L16.4813 27.8465V27.8465ZM16.8833 7.92127L13.1157 7.72121C12.7783 7.7033 12.5477 7.93884 12.5392 8.31006C12.5378 8.37193 12.5378 8.37193 12.5363 8.4338L12.5349 8.49567C12.5307 8.68129 12.5264 8.8669 12.5221 9.05251C12.5193 9.17625 12.5164 9.29999 12.5136 9.42373C12.4851 10.6611 11.5078 11.5384 10.3832 11.4787C9.42726 11.428 8.65709 10.6437 8.51259 9.58296C8.46205 9.33249 8.29904 9.07605 8.01788 9.06112C7.79296 9.04918 7.56518 9.16098 7.44703 9.40249C7.03349 10.2478 6.06901 10.5682 5.29173 10.0933C5.12445 10.0225 5.01484 9.8928 4.90522 9.76309C4.68598 9.50366 4.34859 9.48575 4.11797 9.72129C4.00266 9.83906 3.94359 9.95981 3.93932 10.1454L3.88098 12.6821C3.8696 13.1771 3.46602 13.5893 3.01616 13.5654C2.56631 13.5415 2.18265 13.0875 2.19403 12.5925L2.33347 6.52922C2.35623 5.53929 3.16055 4.83864 4.0026 4.9453C4.45246 4.96919 4.84039 5.23757 5.11443 5.56185C5.33367 5.82128 5.66964 5.90107 5.90026 5.66553C6.07322 5.48887 6.13514 5.24438 6.0846 4.99391C6.03264 4.80531 5.9821 4.55484 5.98637 4.36923C6.01482 3.13182 6.9373 2.18966 8.0057 2.24639C8.90541 2.29416 9.67843 2.95467 9.93824 3.89766C10.0436 4.21299 10.3205 4.41353 10.6607 4.3077C10.7169 4.31069 10.7746 4.2518 10.8323 4.19292C11.6942 3.43339 12.9847 3.6258 13.6367 4.65157C13.7463 4.78128 13.7983 4.96988 13.9079 5.09959C14.0133 5.41492 14.3478 5.55657 14.6333 5.38589L14.6909 5.327C14.9763 5.15632 15.3166 5.0505 15.654 5.06841C16.4974 5.1132 17.2114 5.89446 17.19 6.82252C17.2925 7.26159 17.1153 7.62386 16.8833 7.92127ZM17.8792 16.0272L19.3412 16.1048C19.9035 16.1347 20.1733 16.6445 20.1519 17.5726L20.058 21.6561C20.0367 22.5841 19.7441 23.0642 19.1818 23.0343L17.7198 22.9567L17.8792 16.0272ZM22.886 23.5407C22.859 24.7162 22.5337 26.6193 20.7905 26.5267L17.6416 26.3595L17.6928 24.1321L19.1548 24.2098C20.3919 24.2755 21.1457 23.3244 21.1841 21.6538L21.278 17.5704C21.315 15.9617 20.6082 14.8711 19.3711 14.8054L17.909 14.7278L17.9588 12.5623L21.1078 12.7295C22.851 12.8221 23.0881 14.755 23.061 15.9306L22.886 23.5407Z" fill="#0F0B36"/>
<path d="M6.31123 13.7342C5.97508 13.7161 5.74548 13.9509 5.73724 14.3213L5.51194 24.4457C5.5037 24.8161 5.7223 25.0751 6.05845 25.0932C6.39461 25.1114 6.6242 24.8765 6.63244 24.5061L6.85774 14.3817C6.86599 14.0113 6.59136 13.7493 6.31123 13.7342Z" fill="#0F0B36"/>
<path d="M8.96357 13.8784C8.62742 13.8603 8.39783 14.0952 8.38958 14.4656L8.16429 24.5899C8.15604 24.9603 8.37465 25.2194 8.7108 25.2375C9.04695 25.2556 9.27655 25.0207 9.28479 24.6503L9.51009 14.5259C9.51833 14.1555 9.29972 13.8965 8.96357 13.8784Z" fill="#0F0B36"/>
<path d="M11.6726 14.0257C11.3364 14.0076 11.1068 14.2425 11.0986 14.6129L10.8733 24.7372C10.865 25.1076 11.0836 25.3667 11.4198 25.3848C11.7559 25.4029 11.9855 25.168 11.9938 24.7976L12.2191 14.6733C12.2273 14.3028 11.9527 14.0408 11.6726 14.0257Z" fill="#0F0B36"/>
<path d="M14.3249 14.1699C13.9888 14.1518 13.7592 14.3866 13.7509 14.757L13.5256 24.8814C13.5173 25.2518 13.736 25.5108 14.0721 25.529C14.4083 25.5471 14.6379 25.3122 14.6461 24.9418L14.8714 14.8174C14.8797 14.447 14.6611 14.188 14.3249 14.1699Z" fill="#0F0B36"/>
</svg>
