<?xml version="1.0"?>
<svg xmlns="http://www.w3.org/2000/svg" xmlns:xlink="http://www.w3.org/1999/xlink" xmlns:svgjs="http://svgjs.com/svgjs" version="1.1" width="512" height="512" x="0" y="0" viewBox="0 0 512 512" style="enable-background:new 0 0 512 512" xml:space="preserve" class=""><g>
<g xmlns="http://www.w3.org/2000/svg">
	<g>
		<path d="M429.446,230.069c-0.289-0.488-0.59-0.97-0.928-1.434L270.702,7.572C267.316,2.819,261.835,0,255.998,0    c-5.843,0-11.318,2.819-14.703,7.572L83.478,228.635c-0.325,0.464-0.638,0.94-0.922,1.434    c-32.419,55.916-31.901,123.79,1.391,181.573C119.607,473.546,185.535,512,255.998,512s136.391-38.46,172.056-100.364    C461.34,353.858,461.864,285.979,429.446,230.069z M396.738,393.596c-29.226,50.742-83.155,82.263-140.74,82.263    c-57.579,0-111.508-31.515-140.74-82.257c-27.016-46.899-27.684-99.581-1.861-144.685L255.998,49.17l142.601,199.752    C424.416,294.027,423.753,346.708,396.738,393.596z" fill="#f4a300" data-original="#000000" style=""/>
	</g>
</g>
<g xmlns="http://www.w3.org/2000/svg">
	<g>
		<path d="M350.567,297.568c-9.981,0-18.071,8.09-18.071,18.071c0,42.839-34.858,77.698-77.704,77.698    c-9.981,0-18.071,8.09-18.071,18.071c0,9.981,8.09,18.071,18.071,18.071c62.771,0,113.845-51.074,113.845-113.839    C368.638,305.658,360.548,297.568,350.567,297.568z" fill="#f4a300" data-original="#000000" style=""/>
	</g>
</g>
<g xmlns="http://www.w3.org/2000/svg">
</g>
<g xmlns="http://www.w3.org/2000/svg">
</g>
<g xmlns="http://www.w3.org/2000/svg">
</g>
<g xmlns="http://www.w3.org/2000/svg">
</g>
<g xmlns="http://www.w3.org/2000/svg">
</g>
<g xmlns="http://www.w3.org/2000/svg">
</g>
<g xmlns="http://www.w3.org/2000/svg">
</g>
<g xmlns="http://www.w3.org/2000/svg">
</g>
<g xmlns="http://www.w3.org/2000/svg">
</g>
<g xmlns="http://www.w3.org/2000/svg">
</g>
<g xmlns="http://www.w3.org/2000/svg">
</g>
<g xmlns="http://www.w3.org/2000/svg">
</g>
<g xmlns="http://www.w3.org/2000/svg">
</g>
<g xmlns="http://www.w3.org/2000/svg">
</g>
<g xmlns="http://www.w3.org/2000/svg">
</g>
</g></svg>
